#tb 0: 1/25
#media_type 0: video
#codec_id 0: rawvideo
#dimensions 0: 352x288
#sar 0: 0/1
0,          0,          0,        1,   608256, 0x3aef31f3
0,          1,          1,        1,   608256, 0x05afe4e8
0,          2,          2,        1,   608256, 0x9d7dc9b1
0,          3,          3,        1,   608256, 0x60b3efec
0,          4,          4,        1,   608256, 0x7dc51741
0,          5,          5,        1,   608256, 0xb3bfb413
0,          6,          6,        1,   608256, 0x0a2738b3
0,          7,          7,        1,   608256, 0xfd3f8f1b
0,          8,          8,        1,   608256, 0x922d413f
0,          9,          9,        1,   608256, 0x775b4cfb
0,         10,         10,        1,   608256, 0xcbfaec82
0,         11,         11,        1,   608256, 0x1f1903a2
0,         12,         12,        1,   608256, 0xdd246528
0,         13,         13,        1,   608256, 0xe3d8afdc
0,         14,         14,        1,   608256, 0xb29c4235
0,         15,         15,        1,   608256, 0xa230e654
0,         16,         16,        1,   608256, 0xe0246276
0,         17,         17,        1,   608256, 0xd47b6b3c
0,         18,         18,        1,   608256, 0xa5593d23
0,         19,         19,        1,   608256, 0x01cd5642
0,         20,         20,        1,   608256, 0x0c451611
0,         21,         21,        1,   608256, 0xc4833ff5
0,         22,         22,        1,   608256, 0xbed881fc
0,         23,         23,        1,   608256, 0x709e77e6
0,         24,         24,        1,   608256, 0x9815dad3
0,         25,         25,        1,   608256, 0x55c1fe5f
0,         26,         26,        1,   608256, 0xd89ff770
0,         27,         27,        1,   608256, 0xc636abf7
0,         28,         28,        1,   608256, 0x17d3f5b1
0,         29,         29,        1,   608256, 0x0389cd38
0,         30,         30,        1,   608256, 0x502eea66
0,         31,         31,        1,   608256, 0xcb697a48
0,         32,         32,        1,   608256, 0xd4f6c694
0,         33,         33,        1,   608256, 0x734a5163
0,         34,         34,        1,   608256, 0xa53f5187
0,         35,         35,        1,   608256, 0x64d2c1c7
0,         36,         36,        1,   608256, 0x41a170d0
0,         37,         37,        1,   608256, 0x6f671fe1
0,         38,         38,        1,   608256, 0x56983008
0,         39,         39,        1,   608256, 0x95911957
0,         40,         40,        1,   608256, 0x027f2a7a
0,         41,         41,        1,   608256, 0xcd22d70f
0,         42,         42,        1,   608256, 0x268beec0
0,         43,         43,        1,   608256, 0xcf14123e
0,         44,         44,        1,   608256, 0xfc8e3bff
0,         45,         45,        1,   608256, 0x6974ad54
0,         46,         46,        1,   608256, 0x8fbd9cdd
0,         47,         47,        1,   608256, 0x66110ef8
0,         48,         48,        1,   608256, 0x84b4b1f1
0,         49,         49,        1,   608256, 0xf0d4949b
0,         50,         50,        1,   608256, 0xee06377f
0,         51,         51,        1,   608256, 0x9c22c5ee
0,         52,         52,        1,   608256, 0x322abee2
0,         53,         53,        1,   608256, 0x82745ed3
0,         54,         54,        1,   608256, 0xe7b9248b
0,         55,         55,        1,   608256, 0xc8c1ce0e
0,         56,         56,        1,   608256, 0x8451eba9
0,         57,         57,        1,   608256, 0xece9412d
0,         58,         58,        1,   608256, 0xffbc2c24
0,         59,         59,        1,   608256, 0xf58c117e
0,         60,         60,        1,   608256, 0x7853f334
0,         61,         61,        1,   608256, 0x1acd6465
0,         62,         62,        1,   608256, 0xb668856c
0,         63,         63,        1,   608256, 0x3f52c230
0,         64,         64,        1,   608256, 0xd7e8b5b6
0,         65,         65,        1,   608256, 0xf663681d
0,         66,         66,        1,   608256, 0x07ef670c
0,         67,         67,        1,   608256, 0x1d5084f4
0,         68,         68,        1,   608256, 0x0ea3fe04
0,         69,         69,        1,   608256, 0xf095d1e0
0,         70,         70,        1,   608256, 0xbdac37fb
0,         71,         71,        1,   608256, 0x2cbfdf91
0,         72,         72,        1,   608256, 0x8da7190f
0,         73,         73,        1,   608256, 0x08bf6fc9
0,         74,         74,        1,   608256, 0xa2368e5c
0,         75,         75,        1,   608256, 0x36d38f81
0,         76,         76,        1,   608256, 0x94d344cc
0,         77,         77,        1,   608256, 0x1cf33f86
0,         78,         78,        1,   608256, 0x98d6341f
0,         79,         79,        1,   608256, 0xb04e3a3a
0,         80,         80,        1,   608256, 0x74e52483
0,         81,         81,        1,   608256, 0x6acc8d96
0,         82,         82,        1,   608256, 0x136d6c4e
0,         83,         83,        1,   608256, 0x50efa37a
0,         84,         84,        1,   608256, 0x53170421
0,         85,         85,        1,   608256, 0x2ed5210e
0,         86,         86,        1,   608256, 0x5f471854
0,         87,         87,        1,   608256, 0xd6ff7856
0,         88,         88,        1,   608256, 0x446bf456
0,         89,         89,        1,   608256, 0x872b95b1
0,         90,         90,        1,   608256, 0xc9e5e827
0,         91,         91,        1,   608256, 0xdab3eb04
0,         92,         92,        1,   608256, 0xccd6347e
0,         93,         93,        1,   608256, 0xd7dfd0a9
0,         94,         94,        1,   608256, 0x60b834c3
0,         95,         95,        1,   608256, 0x0b822676
0,         96,         96,        1,   608256, 0x0e5d3d5a
0,         97,         97,        1,   608256, 0x1fa0233d
0,         98,         98,        1,   608256, 0xb853b650
0,         99,         99,        1,   608256, 0x30d8d033
